<svg xmlns="http://www.w3.org/2000/svg" width="200" height="200" viewBox="0 0 200 200">
  <rect width="200" height="200" fill="white" />
  <g fill="#000000">
    <!-- QR Code Pattern - Just for visualization, not a real QR code -->
    <rect x="20" y="20" width="40" height="40" />
    <rect x="140" y="20" width="40" height="40" />
    <rect x="20" y="140" width="40" height="40" />
    <rect x="70" y="20" width="10" height="10" />
    <rect x="90" y="20" width="10" height="10" />
    <rect x="120" y="20" width="10" height="10" />
    <rect x="20" y="70" width="10" height="10" />
    <rect x="20" y="90" width="10" height="10" />
    <rect x="20" y="120" width="10" height="10" />
    <rect x="70" y="70" width="60" height="60" />
    <rect x="140" y="70" width="10" height="10" />
    <rect x="170" y="70" width="10" height="10" />
    <rect x="140" y="90" width="10" height="10" />
    <rect x="170" y="90" width="10" height="10" />
    <rect x="70" y="140" width="10" height="10" />
    <rect x="90" y="140" width="10" height="10" />
    <rect x="120" y="170" width="10" height="10" />
    <rect x="170" y="140" width="10" height="10" />
    <rect x="140" y="170" width="10" height="10" />
    <rect x="90" y="170" width="10" height="10" />
  </g>
  <text x="100" y="105" text-anchor="middle" font-family="sans-serif" font-size="10">SwingEats</text>
</svg>
